<?xml version="1.0"?>
<svg xmlns="http://www.w3.org/2000/svg" id="Capa_1" enable-background="new 0 0 512 512" height="512px" viewBox="0 0 512 512" width="512px" class=""><g><g><g><g><g><g><g><g><g><g><circle cx="256" cy="256" fill="#a3d4ff" r="256" data-original="#A3D4FF" class="" style="fill:#FFB229" data-old_color="#a3d4ff"/></g></g></g></g></g></g></g></g><path d="m512 256c0-20.401-2.387-40.245-6.896-59.268l-94.671-94.671-9.519 23.398-42.281-42.281-255.095 345.644 69.402 69.402c26.046 8.929 53.987 13.776 83.06 13.776 141.385 0 256-114.615 256-256z" fill="#65b1fc" data-original="#65B1FC" class="active-path" style="fill:#E99300" data-old_color="#65b1fc"/><g><path d="m123.575 83.178h235.058v345.645h-235.058z" fill="#636978" data-original="#636978" class=""/></g><g><path d="m255.844 83.178h102.789v345.645h-102.789z" fill="#414952" data-original="#414952" class=""/></g><g><path d="m103.538 83.178h40.072v345.645h-40.072z" fill="#414952" data-original="#414952" class=""/></g><g><path d="m171.955 123.564h152.47v83.077h-152.47z" fill="#fff" data-original="#FFF" class=""/></g><g><path d="m255.844 123.563h68.581v83.077h-68.581z" fill="#e9edf5" data-original="#E9EDF5" class=""/></g><g><path d="m410.434 380.613-19.059 34.208-19.059-34.208 19.059-14.335z" fill="#fff" data-original="#FFF" class=""/></g><g><path d="m410.434 380.613-19.059-14.335v48.543z" fill="#e9edf5" data-original="#E9EDF5" class=""/></g><g><path d="m372.316 102.061h38.118v278.551h-38.118z" fill="#ff475a" data-original="#FF475A" class="" style="fill:#1273EB" data-old_color="#ff475a"/></g><g><path d="m391.372 102.061h19.062v278.552h-19.062z" fill="#f03049" data-original="#F03049" class="" style="fill:#FB5252" data-old_color="#f03049"/></g></g></g> </svg>
