<svg height="512" viewBox="0 0 64 64" width="512" xmlns="http://www.w3.org/2000/svg"><g id="shop_&#xB7;_ecommerce_&#xB7;_shopping_&#xB7;_buy_&#xB7;_shirt" data-name="shop &#xB7; ecommerce &#xB7; shopping &#xB7; buy &#xB7; shirt"><path d="m58 53h-52v-30a2 2 0 0 1 2-2h48a2 2 0 0 1 2 2z" fill="#004fac"/><path d="m10 25h44v24h-44z" fill="#ffcd00"/><path d="m50 25v6a16 16 0 0 1 -16 16h-24v2h44v-24z" fill="#ebbf00"/><path d="m61 53v4a4 4 0 0 1 -4 4h-50a4 4 0 0 1 -4-4v-4z" fill="#58595b"/><path d="m29 57h6a2 2 0 0 0 2-2v-2h-10v2a2 2 0 0 0 2 2z" fill="#d1d3d4"/><path d="m59 3h-40a2 2 0 0 0 -2 2v6h44v-6a2 2 0 0 0 -2-2z" fill="#006df0"/><path d="m17 11h44v32h-44z" fill="#ffdaaa"/><path d="m57 11v14a16 16 0 0 1 -16 16h-24v2h44v-32z" fill="#ffc477"/><path d="m25 31h10v-10l4 1v-4l-3.983-1h-2.017a3 3 0 0 1 -6 0h-2.025l-3.975 1v4l4-1z" fill="#ed1c24"/><path d="m43 31h14v8h-14z" fill="#ff9811"/><g fill="#231f20"><path d="m61 44a1 1 0 0 0 1-1v-38a3.009 3.009 0 0 0 -3-3h-40a3.009 3.009 0 0 0 -3 3v15h-8a3.009 3.009 0 0 0 -3 3v29h-2a1 1 0 0 0 -1 1v4a5 5 0 0 0 5 5h50a5 5 0 0 0 5-5v-4a1 1 0 0 0 -1-1h-2v-8zm-43-39a1 1 0 0 1 1-1h40a1 1 0 0 1 1 1v5h-42zm-1 39h36v4h-42v-22h5v17a1 1 0 0 0 1 1zm-10-21a1 1 0 0 1 1-1h8v2h-6a1 1 0 0 0 -1 1v24a1 1 0 0 0 1 1h44a1 1 0 0 0 1-1v-5h2v8h-50zm29 31v1a1 1 0 0 1 -1 1h-6a1 1 0 0 1 -1-1v-1zm24 0v3a3.009 3.009 0 0 1 -3 3h-50a3.009 3.009 0 0 1 -3-3v-3h22v1a3.009 3.009 0 0 0 3 3h6a3.009 3.009 0 0 0 3-3v-1zm-42-12v-30h42v30z"/><path d="m43 18h14a1 1 0 0 0 0-2h-14a1 1 0 0 0 0 2z"/><path d="m43 22h11a1 1 0 0 0 0-2h-11a1 1 0 0 0 0 2z"/><path d="m43 26h7a1 1 0 0 0 0-2h-7a1 1 0 0 0 0 2z"/><path d="m35 36h-10a1 1 0 0 0 0 2h10a1 1 0 0 0 0-2z"/><path d="m22 6h-1a1 1 0 0 0 0 2h1a1 1 0 0 0 0-2z"/><path d="m27 6h-1a1 1 0 0 0 0 2h1a1 1 0 0 0 0-2z"/><path d="m32 6h-1a1 1 0 0 0 0 2h1a1 1 0 0 0 0-2z"/><path d="m39.24 17.03-3.98-1a.986.986 0 0 0 -.24-.03h-2.02a1 1 0 0 0 -1 1 2 2 0 0 1 -4 0 1 1 0 0 0 -1-1h-2.02a1.007 1.007 0 0 0 -.25.03l-3.97 1a1 1 0 0 0 -.76.97v4a1 1 0 0 0 .38.79 1.022 1.022 0 0 0 .86.18l2.76-.69v8.72a1 1 0 0 0 1 1h10a1 1 0 0 0 1-1v-8.72l2.76.69a.989.989 0 0 0 .86-.18 1 1 0 0 0 .38-.79v-4a1 1 0 0 0 -.76-.97zm-1.24 3.69-2.76-.69a1.022 1.022 0 0 0 -.86.18 1 1 0 0 0 -.38.79v9h-8v-9a1 1 0 0 0 -.38-.79.989.989 0 0 0 -.86-.18l-2.76.69v-1.94l3.1-.78h1.03a4 4 0 0 0 7.74 0h1.02l3.11.78z"/><path d="m43 40h14a1 1 0 0 0 1-1v-8a1 1 0 0 0 -1-1h-14a1 1 0 0 0 -1 1v8a1 1 0 0 0 1 1zm1-8h12v6h-12z"/></g></g></svg>