<svg height="512" viewBox="0 0 64 64" width="512" xmlns="http://www.w3.org/2000/svg"><g id="cart_&#xB7;_online_&#xB7;_shirt_&#xB7;_ecommerce_&#xB7;_shopping" data-name="cart &#xB7; online &#xB7; shirt &#xB7; ecommerce &#xB7; shopping"><path d="m3 11h54v42h-54z" fill="#ffdaaa"/><path d="m54 11v12a28 28 0 0 1 -28 28h-23v2h54v-42z" fill="#ffc477"/><path d="m12 45h7l2-6h-9.75z" fill="#5eac24"/><path d="m59 33a2.006 2.006 0 0 0 -2 2v-2a2.015 2.015 0 0 0 -2-2 2.006 2.006 0 0 0 -2 2v-1a2.015 2.015 0 0 0 -2-2 2.006 2.006 0 0 0 -2 2v-7a2.012 2.012 0 0 0 -2.177-1.992 2.075 2.075 0 0 0 -1.823 2.104v9.888h-2a2.006 2.006 0 0 0 -2 2v9.183a6 6 0 0 0 1.008 3.329l.656.984a2 2 0 0 1 .336 1.11v1.394h16v-1.394a2 2 0 0 1 .336-1.11l.656-.984a6 6 0 0 0 1.008-3.329v-11.183a2.015 2.015 0 0 0 -2-2z" fill="#ffbcab"/><path d="m41 53v8h20v-8h-2-16z" fill="#004fac"/><path d="m55 3h-50a2 2 0 0 0 -2 2v6h54v-6a2 2 0 0 0 -2-2z" fill="#006df0"/><path d="m21 17a3 3 0 0 1 -6 0h-2.025l-3.975 1v4l4-1v10h10v-10l4 1v-4l-3.983-1z" fill="#ed1c24"/><g fill="#231f20"><path d="m60.17 51.05.65-.98a7 7 0 0 0 1.18-3.89v-11.18a2.954 2.954 0 0 0 -.87-2.11 3.061 3.061 0 0 0 -3.13-.71v-27.18a3.009 3.009 0 0 0 -3-3h-50a3.009 3.009 0 0 0 -3 3v48a1 1 0 0 0 1 1h37v7a1 1 0 0 0 1 1h20a1 1 0 0 0 1-1v-8a1 1 0 0 0 -1-1h-1v-.39a1.023 1.023 0 0 1 .17-.56zm-56.17-46.05a1 1 0 0 1 1-1h50a1 1 0 0 1 1 1v5h-52zm0 47v-40h52v18.2a3.071 3.071 0 0 0 -2.47.19 2.744 2.744 0 0 0 -.4-.5 3.066 3.066 0 0 0 -3.13-.72v-4.17a2.954 2.954 0 0 0 -.87-2.11 3.01 3.01 0 0 0 -2.39-.88 3.073 3.073 0 0 0 -2.74 3.1v8.89h-1a3.009 3.009 0 0 0 -3 3v9.18a7 7 0 0 0 1.18 3.89l.65.98a1.023 1.023 0 0 1 .17.56v.39zm56 8h-18v-6h18zm-.84-11.04-.66.98a3 3 0 0 0 -.5 1.67v.39h-14v-.39a3 3 0 0 0 -.5-1.67l-.66-.98a5.016 5.016 0 0 1 -.84-2.78v-9.18a1 1 0 0 1 1-1h1v5a1 1 0 0 0 2 0v-15.89a1.092 1.092 0 0 1 .91-1.11.973.973 0 0 1 .8.31.928.928 0 0 1 .29.69v12a1 1 0 0 0 2 0v-5a1 1 0 0 1 1-1 .949.949 0 0 1 .71.31.928.928 0 0 1 .29.69v5a1 1 0 0 0 2 0v-4a1 1 0 0 1 1-1 .949.949 0 0 1 .71.31.928.928 0 0 1 .29.69v4a1 1 0 0 0 2 0v-2a1 1 0 0 1 1-1 .949.949 0 0 1 .71.31.928.928 0 0 1 .29.69v11.18a5.016 5.016 0 0 1 -.84 2.78z"/><path d="m31 20h22a1 1 0 0 0 0-2h-22a1 1 0 0 0 0 2z"/><path d="m31 24h10a1 1 0 0 0 0-2h-10a1 1 0 0 0 0 2z"/><path d="m37 26h-6a1 1 0 0 0 0 2h6a1 1 0 0 0 0-2z"/><path d="m8 6h-1a1 1 0 0 0 0 2h1a1 1 0 0 0 0-2z"/><path d="m13 6h-1a1 1 0 0 0 0 2h1a1 1 0 0 0 0-2z"/><path d="m18 6h-1a1 1 0 0 0 0 2h1a1 1 0 0 0 0-2z"/><path d="m27.243 17.03-3.982-1a.992.992 0 0 0 -.243-.03h-2.018a1 1 0 0 0 -1 1 2 2 0 0 1 -4 0 1 1 0 0 0 -1-1h-2.024a1.021 1.021 0 0 0 -.245.03l-3.975 1a1 1 0 0 0 -.756.97v4a1 1 0 0 0 1.242.97l2.758-.689v8.719a1 1 0 0 0 1 1h10a1 1 0 0 0 1-1v-8.719l2.758.689a1 1 0 0 0 1.242-.97v-4a1 1 0 0 0 -.757-.97zm-1.243 3.689-2.758-.689a1 1 0 0 0 -1.242.97v9h-8v-9a1 1 0 0 0 -1.242-.97l-2.758.689v-1.939l3.1-.78h1.027a4 4 0 0 0 7.746 0h1.021l3.106.78z"/><circle cx="13" cy="48" r="2"/><circle cx="18" cy="48" r="2"/><path d="m21 38h-8.867l-.141-1.124a1 1 0 0 0 -.992-.876h-2a1 1 0 0 0 0 2h1.117l.139 1.111v.029l.748 5.984a1 1 0 0 0 .996.876h7a1 1 0 0 0 .948-.684l2-6a1 1 0 0 0 -.948-1.316zm-2.721 6h-5.4l-.5-4h7.229z"/><path d="m26 40h-1a1 1 0 0 0 0 2h1a1 1 0 0 0 0-2z"/><path d="m37 40h-7a1 1 0 0 0 0 2h7a1 1 0 0 0 0-2z"/><path d="m26 44h-1a1 1 0 0 0 0 2h1a1 1 0 0 0 0-2z"/><path d="m37 44h-7a1 1 0 0 0 0 2h7a1 1 0 0 0 0-2z"/></g></g></svg>