<svg height="512" viewBox="0 0 64 64" width="512" xmlns="http://www.w3.org/2000/svg"><g id="delivery_&#xB7;_shipping_&#xB7;_box_&#xB7;_gift_&#xB7;_truck" data-name="delivery  &#xB7; shipping &#xB7;  box &#xB7; gift &#xB7; truck"><path d="m5 23v24h34v-13-11z" fill="#ffcd00"/><path d="m5 23h34v3h-34z" fill="#dfb300"/><path d="m22 13v-5a5 5 0 1 0 -5 5z" fill="#ed1c24"/><path d="m14 8a5 5 0 0 1 4-4.9 5 5 0 1 0 -1 9.9h2a5 5 0 0 1 -5-5z" fill="#cf1820"/><path d="m26 13h1a5 5 0 1 0 -5-5v5z" fill="#ed1c24"/><path d="m27 3a4.988 4.988 0 0 0 -1 .1 5 5 0 0 1 -1 9.9h2a5 5 0 0 0 0-10z" fill="#cf1820"/><path d="m5 54h56a0 0 0 0 1 0 0v2a2 2 0 0 1 -2 2h-52a2 2 0 0 1 -2-2v-2a0 0 0 0 1 0 0z" fill="#006df0"/><path d="m45.1 34h-2.1v7a2 2 0 0 0 2 2h8l-2.416-5.437a6 6 0 0 0 -5.484-3.563z" fill="#a7a9ac"/><path d="m3 47h36v7h-36z" fill="#d80027"/><path d="m55 43h-10a2 2 0 0 1 -2-2v-7h-4v20h22v-5a6 6 0 0 0 -6-6z" fill="#d80027"/><circle cx="50" cy="56" fill="#58595b" r="5"/><circle cx="18" cy="56" fill="#58595b" r="5"/><path d="m3 13h38v10h-38z" fill="#5eac24"/><path d="m18 13h8v34h-8z" fill="#7ed63e"/><g fill="#bd0022"><path d="m43 43h2a2 2 0 0 1 -2-2v-7h-2v7a2 2 0 0 0 2 2z"/><path d="m55 43h-2a6 6 0 0 1 6 6v5h2v-5a6 6 0 0 0 -6-6z"/><path d="m3 47h36v2h-36z"/></g><path d="m55 42h-1.35l-2.15-4.84a7.007 7.007 0 0 0 -6.4-4.16h-5.1v-9h1a1 1 0 0 0 1-1v-10a1 1 0 0 0 -1-1h-6.11a6.97 6.97 0 0 0 2.11-5 1 1 0 0 0 -2 0 5 5 0 0 1 -3.26 4.67 6 6 0 1 0 -9.74-6.98 6 6 0 1 0 -9.74 6.98 5 5 0 0 1 -3.26-4.67 1 1 0 0 0 -2 0 6.97 6.97 0 0 0 2.11 5h-6.11a1 1 0 0 0 -1 1v10a1 1 0 0 0 1 1h1v22h-1a1 1 0 0 0 -1 1v7a1 1 0 0 0 1 1h1v1a3.009 3.009 0 0 0 3 3h5.81a5.989 5.989 0 0 0 10.38 0h21.62a5.989 5.989 0 0 0 10.38 0h3.81a3.009 3.009 0 0 0 3-3v-7a7.008 7.008 0 0 0 -7-7zm-11-7h1.1a5.015 5.015 0 0 1 4.57 2.97l1.79 4.03h-6.46a1 1 0 0 1 -1-1zm-4-21v8h-13v-8zm-2 10v22h-11v-22zm-15-16a4 4 0 1 1 4 4h-4zm2 6v32h-6v-32zm-8-10a4 4 0 0 1 4 4v4h-4a4 4 0 0 1 0-8zm-13 10h13v8h-13zm13 10v22h-11v-22zm-4.91 33h-5.09a1 1 0 0 1 -1-1v-1h6.09a5.6 5.6 0 0 0 0 2zm5.91 3a4 4 0 1 1 4-4 4 4 0 0 1 -4 4zm0-10a6 6 0 0 0 -5.19 3h-8.81v-5h34v5h-14.81a6 6 0 0 0 -5.19-3zm26.09 7h-20.18a5.6 5.6 0 0 0 0-2h20.18a5.6 5.6 0 0 0 0 2zm5.91 3a4 4 0 1 1 4-4 4 4 0 0 1 -4 4zm10-4a1 1 0 0 1 -1 1h-3.09a5.6 5.6 0 0 0 0-2h4.09zm0-3h-4.81a5.989 5.989 0 0 0 -10.38 0h-4.81v-18h2v6a3.009 3.009 0 0 0 3 3h10a5 5 0 0 1 5 5z" fill="#231f20"/><path d="m45 47h2a1 1 0 0 0 0-2h-2a1 1 0 0 0 0 2z" fill="#231f20"/></g></svg>