<svg height="512" viewBox="0 0 64 64" width="512" xmlns="http://www.w3.org/2000/svg"><g id="mobilephone_&#xB7;_shopping_&#xB7;_payment_&#xB7;_cart_&#xB7;_ecommerce" data-name="mobilephone &#xB7; shopping &#xB7; payment &#xB7; cart &#xB7; ecommerce"><path d="m15 9h34v46h-34z" fill="#ffdaaa"/><path d="m46 9v20a24 24 0 0 1 -24 24h-7v2h34v-46z" fill="#ffc477"/><path d="m3 29h29v20h-29z" fill="#5eac24"/><path d="m30 29h2v20h-2z" fill="#4e901e"/><path d="m3 43v6h6a6 6 0 0 0 -6-6z" fill="#7ed63e"/><path d="m15 55v2a4 4 0 0 0 4 4h26a4 4 0 0 0 4-4v-2z" fill="#006df0"/><path d="m9 29h-6v6a6 6 0 0 0 6-6z" fill="#7ed63e"/><path d="m53.5 44.31a1.976 1.976 0 0 0 1.5.69 2 2 0 0 0 0-4 1.976 1.976 0 0 0 -1.5.69 1.966 1.966 0 0 1 0 2.62z" fill="#9bc9ff"/><path d="m45 3h-26a4 4 0 0 0 -4 4v2h34v-2a4 4 0 0 0 -4-4z" fill="#006df0"/><path d="m31 14h-9.75l.75 6h7z" fill="#5eac24"/><path d="m61 31v16a2.006 2.006 0 0 1 -2 2h-27v-20h27a2.006 2.006 0 0 1 2 2z" fill="#ed1c24"/><path d="m59 29h-2a2.006 2.006 0 0 1 2 2v16a2.006 2.006 0 0 1 -2 2h2a2.006 2.006 0 0 0 2-2v-16a2.006 2.006 0 0 0 -2-2z" fill="#cf1820"/><path d="m32 33h29v4h-29z" fill="#58595b"/><path d="m59 33h2v4h-2z" fill="#4d4e50"/><circle cx="55" cy="43" fill="#f15a29" r="2"/><circle cx="52" cy="43" fill="#f7941d" r="2"/><g fill="#231f20"><circle cx="23" cy="23" r="2"/><circle cx="28" cy="23" r="2"/><path d="m29.949 20.316 2-6a1 1 0 0 0 -.949-1.316h-8.867l-.141-1.124a1 1 0 0 0 -.992-.876h-2a1 1 0 0 0 0 2h1.117l.139 1.111v.029l.748 5.984a1 1 0 0 0 .996.876h7a1 1 0 0 0 .949-.684zm-7.066-1.316-.5-4h7.23l-1.334 4z"/><path d="m24 42h-2a1 1 0 0 1 -1-1 1 1 0 0 0 -2 0 3 3 0 0 0 3 3v1a1 1 0 0 0 2 0v-1a3 3 0 0 0 0-6h-2a1 1 0 0 1 0-2h2a1 1 0 0 1 1 1 1 1 0 0 0 2 0 3 3 0 0 0 -3-3v-1a1 1 0 0 0 -2 0v1a3 3 0 0 0 0 6h2a1 1 0 0 1 0 2z"/><path d="m28 7h2a1 1 0 0 0 0-2h-2a1 1 0 0 0 0 2z"/><path d="m34 7h2a1 1 0 0 0 0-2h-2a1 1 0 0 0 0 2z"/><path d="m34 57h-4a1 1 0 0 0 0 2h4a1 1 0 0 0 0-2z"/><path d="m11 40h3a1 1 0 0 0 0-2h-3a1 1 0 0 0 0 2z"/><path d="m59 28h-9v-21a5 5 0 0 0 -5-5h-26a5 5 0 0 0 -5 5v21h-11a1 1 0 0 0 -1 1v20a1 1 0 0 0 1 1h11v7a5 5 0 0 0 5 5h26a5 5 0 0 0 5-5v-7h9a3.009 3.009 0 0 0 3-3v-16a3.009 3.009 0 0 0 -3-3zm-43-21a3.009 3.009 0 0 1 3-3h26a3.009 3.009 0 0 1 3 3v1h-32zm0 3h32v18h-15v-1a1 1 0 0 0 -2 0v1h-15zm-12 20h3.9a5.01 5.01 0 0 1 -3.9 3.9zm0 18v-3.9a5.01 5.01 0 0 1 3.9 3.9zm5.92 0a7 7 0 0 0 -5.92-5.92v-6.16a7 7 0 0 0 5.92-5.92h21.08v18zm38.08 9a3.009 3.009 0 0 1 -3 3h-26a3.009 3.009 0 0 1 -3-3v-1h32zm0-3h-32v-4h15v1a1 1 0 0 0 2 0v-1h15zm12-7a1 1 0 0 1 -1 1h-26v-10h27zm0-11h-27v-2h27zm0-4h-27v-2h26a1 1 0 0 1 1 1z"/><path d="m55 40a2.959 2.959 0 0 0 -1.493.421 2.965 2.965 0 0 0 -1.507-.421 3 3 0 0 0 0 6 2.965 2.965 0 0 0 1.507-.421 2.959 2.959 0 0 0 1.493.421 3 3 0 0 0 0-6zm-4 3a1 1 0 1 1 1 1 1 1 0 0 1 -1-1zm4 1a.956.956 0 0 1 -.173-.038 2.769 2.769 0 0 0 0-1.924.928.928 0 0 1 .173-.038 1 1 0 0 1 0 2z"/><path d="m45 42h-8a1 1 0 0 0 0 2h8a1 1 0 0 0 0-2z"/><path d="m35 15h10a1 1 0 0 0 0-2h-10a1 1 0 0 0 0 2z"/><path d="m35 19h10a1 1 0 0 0 0-2h-10a1 1 0 0 0 0 2z"/><path d="m35 23h10a1 1 0 0 0 0-2h-10a1 1 0 0 0 0 2z"/></g></g></svg>