<svg height="512" viewBox="0 0 64 64" width="512" xmlns="http://www.w3.org/2000/svg"><g id="buy_&#xB7;_ecommerce_&#xB7;_shopping_&#xB7;_pay_&#xB7;_cart" data-name="buy &#xB7; ecommerce &#xB7; shopping &#xB7; pay &#xB7; cart"><path d="m58 53h-52v-32a2 2 0 0 1 2-2h48a2 2 0 0 1 2 2z" fill="#004fac"/><path d="m10 23h44v26h-44z" fill="#ffcd00"/><path d="m50 23v8a16 16 0 0 1 -16 16h-24v2h44v-26z" fill="#ebbf00"/><path d="m61 53v4a4 4 0 0 1 -4 4h-50a4 4 0 0 1 -4-4v-4z" fill="#58595b"/><path d="m29 57h6a2 2 0 0 0 2-2v-2h-10v2a2 2 0 0 0 2 2z" fill="#d1d3d4"/><path d="m50 35h-9.75l.75 6h7z" fill="#5eac24"/><path d="m28 43v-10l4 1v-4l-3.983-1h-2.017a3 3 0 0 1 -6 0h-2.025l-3.975 1v4l4-1v10z" fill="#ed1c24"/><path d="m51 11a10 10 0 1 0 10 10 10 10 0 0 0 -10-10z" fill="#7ed63e"/><path d="m51 11a10.029 10.029 0 0 0 -1.5.125 9.993 9.993 0 0 1 .039 19.756 9.907 9.907 0 0 0 1.461.119 10 10 0 0 0 0-20z" fill="#6ebb36"/><g fill="#231f20"><circle cx="42" cy="44" r="2"/><circle cx="47" cy="44" r="2"/><path d="m38 34h1.117l.139 1.111v.029l.748 5.984a1 1 0 0 0 .996.876h7a1 1 0 0 0 .949-.684l2-6a1 1 0 0 0 -.949-1.316h-8.867l-.141-1.124a1 1 0 0 0 -.992-.876h-2a1 1 0 0 0 0 2zm10.613 2-1.334 4h-5.4l-.5-4z"/><path d="m61 52h-2v-23.47a10.99 10.99 0 1 0 -18.57-10.53h-32.43a3.009 3.009 0 0 0 -3 3v31h-2a1 1 0 0 0 -1 1v4a5 5 0 0 0 5 5h50a5 5 0 0 0 5-5v-4a1 1 0 0 0 -1-1zm-10-40a9 9 0 1 1 -9 9 9.014 9.014 0 0 1 9-9zm0 20a11.023 11.023 0 0 0 2-.19v16.19h-42v-24h29.43a11.011 11.011 0 0 0 10.57 8zm-44-11a1 1 0 0 1 1-1h32.05c-.03.33-.05.66-.05 1s.02.67.05 1h-30.05a1 1 0 0 0 -1 1v26a1 1 0 0 0 1 1h44a1 1 0 0 0 1-1v-17.76a11.455 11.455 0 0 0 2-1.03v21.79h-50zm29 33v1a1 1 0 0 1 -1 1h-6a1 1 0 0 1 -1-1v-1zm24 3a3.009 3.009 0 0 1 -3 3h-50a3.009 3.009 0 0 1 -3-3v-3h22v1a3.009 3.009 0 0 0 3 3h6a3.009 3.009 0 0 0 3-3v-1h22z"/><path d="m14.243 34.97 2.757-.689v8.719a1 1 0 0 0 1 1h10a1 1 0 0 0 1-1v-8.719l2.757.689a1 1 0 0 0 1.243-.97v-4a1 1 0 0 0 -.756-.97l-3.983-1a.992.992 0 0 0 -.243-.03h-2.018a1 1 0 0 0 -1 1 2 2 0 0 1 -4 0 1 1 0 0 0 -1-1h-2.025a1.006 1.006 0 0 0 -.244.03l-3.975 1a1 1 0 0 0 -.756.97v4a1 1 0 0 0 1.243.97zm.757-4.19 3.1-.78h1.027a4 4 0 0 0 7.748 0h1.02l3.105.78v1.939l-2.757-.689a1 1 0 0 0 -1.243.97v9h-8v-9a1 1 0 0 0 -1.243-.97l-2.757.689z"/><path d="m49.293 24.707a1 1 0 0 0 1.414 0l5.657-5.657a1 1 0 0 0 -1.414-1.414l-4.95 4.95-2.122-2.122a1 1 0 0 0 -1.414 1.414z"/><path d="m34.586 39h-2.586a1 1 0 0 0 0 2h2.586l-.414.414a1 1 0 1 0 1.414 1.414l2.121-2.121a1 1 0 0 0 0-1.414l-2.121-2.121a1 1 0 0 0 -1.414 1.414z"/></g></g></svg>