<svg height="512" viewBox="0 0 64 64" width="512" xmlns="http://www.w3.org/2000/svg"><g id="ratting_&#xB7;_shipping_&#xB7;_box_&#xB7;_star_&#xB7;_truck" data-name="ratting  &#xB7; shipping &#xB7;  box &#xB7; star &#xB7; truck"><path d="m5 54h56a0 0 0 0 1 0 0v2a2 2 0 0 1 -2 2h-52a2 2 0 0 1 -2-2v-2a0 0 0 0 1 0 0z" fill="#006df0"/><path d="m45.1 34h-2.1v7a2 2 0 0 0 2 2h8l-2.416-5.437a6 6 0 0 0 -5.484-3.563z" fill="#a7a9ac"/><path d="m38.743 9.809a1 1 0 0 0 -.588-1.809h-3.249a1 1 0 0 1 -.951-.691l-1-3.09a1 1 0 0 0 -1.9 0l-1 3.09a1 1 0 0 1 -.961.691h-3.249a1 1 0 0 0 -.588 1.809l2.628 1.91a1 1 0 0 1 .364 1.118l-1 3.09a1 1 0 0 0 1.539 1.118l2.628-1.91a1 1 0 0 1 1.176 0l2.628 1.91a1 1 0 0 0 1.539-1.118l-1-3.09a1 1 0 0 1 .364-1.118z" fill="#ff9811"/><path d="m59.743 9.809a1 1 0 0 0 -.588-1.809h-3.249a1 1 0 0 1 -.951-.691l-1-3.09a1 1 0 0 0 -1.9 0l-1 3.09a1 1 0 0 1 -.961.691h-3.249a1 1 0 0 0 -.588 1.809l2.628 1.91a1 1 0 0 1 .364 1.118l-1 3.09a1 1 0 0 0 1.539 1.118l2.628-1.91a1 1 0 0 1 1.176 0l2.628 1.91a1 1 0 0 0 1.539-1.118l-1-3.09a1 1 0 0 1 .364-1.118z" fill="#ff9811"/><path d="m18.743 9.809a1 1 0 0 0 -.588-1.809h-3.249a1 1 0 0 1 -.951-.691l-1-3.09a1 1 0 0 0 -1.9 0l-1 3.09a1 1 0 0 1 -.961.691h-3.249a1 1 0 0 0 -.588 1.809l2.628 1.91a1 1 0 0 1 .364 1.118l-1 3.09a1 1 0 0 0 1.539 1.118l2.628-1.91a1 1 0 0 1 1.176 0l2.628 1.91a1 1 0 0 0 1.539-1.118l-1-3.09a1 1 0 0 1 .364-1.118z" fill="#ff9811"/><path d="m3 22h36v26h-36z" fill="#ffcd00"/><path d="m36 22v13a10 10 0 0 1 -10 10h-23v2h36v-25z" fill="#dfb300"/><path d="m12 28h18v14h-18z" fill="#a97c50"/><path d="m21 33 3 2v-7h-6v7z" fill="#ff9811"/><path d="m3 48h36v6h-36z" fill="#d80027"/><path d="m55 43h-10a2 2 0 0 1 -2-2v-7h-4v20h22v-5a6 6 0 0 0 -6-6z" fill="#d80027"/><path d="m43 43h2a2 2 0 0 1 -2-2v-7h-2v7a2 2 0 0 0 2 2z" fill="#bd0022"/><path d="m55 43h-2a6 6 0 0 1 6 6v5h2v-5a6 6 0 0 0 -6-6z" fill="#bd0022"/><path d="m3 48h36v2h-36z" fill="#bd0022"/><circle cx="50" cy="56" fill="#58595b" r="5"/><circle cx="18" cy="56" fill="#58595b" r="5"/><g fill="#df850f"><path d="m52.955 7.309a1 1 0 0 0 .951.691h2a1 1 0 0 1 -.951-.691l-1-3.09a1 1 0 0 0 -1.9 0l-.055.15z"/><path d="m59.743 9.809a1 1 0 0 0 -.588-1.809h-2a1 1 0 0 1 .588 1.809l-2.628 1.91a1 1 0 0 0 -.364 1.118l1 3.09a.957.957 0 0 1 -.057.741l.518.377a1 1 0 0 0 1.539-1.118l-1-3.09a1 1 0 0 1 .364-1.118z"/><path d="m31.955 7.309a1 1 0 0 0 .951.691h2a1 1 0 0 1 -.951-.691l-1-3.09a1 1 0 0 0 -1.9 0l-.055.15z"/><path d="m38.743 9.809a1 1 0 0 0 -.588-1.809h-2a1 1 0 0 1 .588 1.809l-2.628 1.91a1 1 0 0 0 -.364 1.118l1 3.09a.957.957 0 0 1 -.057.741l.518.377a1 1 0 0 0 1.539-1.118l-1-3.09a1 1 0 0 1 .364-1.118z"/><path d="m11.955 7.309a1 1 0 0 0 .951.691h2a1 1 0 0 1 -.951-.691l-1-3.09a1 1 0 0 0 -1.9 0l-.055.15z"/><path d="m18.743 9.809a1 1 0 0 0 -.588-1.809h-2a1 1 0 0 1 .588 1.809l-2.628 1.91a1 1 0 0 0 -.364 1.118l1 3.09a.957.957 0 0 1 -.057.741l.518.377a1 1 0 0 0 1.539-1.118l-1-3.09a1 1 0 0 1 .364-1.118z"/></g><path d="m28.2 18.243a2 2 0 0 1 -1.175-.389 1.97 1.97 0 0 1 -.726-2.236l1-3.09-2.629-1.91a2 2 0 0 1 1.175-3.618h3.249l1-3.09a2 2 0 0 1 3.8 0l1 3.09h3.249a2 2 0 0 1 1.176 3.618l-2.619 1.91 1 3.09a2 2 0 0 1 -3.077 2.236l-2.623-1.91-2.629 1.91a2 2 0 0 1 -1.171.389zm-2.355-9.243 2.629 1.91a1.994 1.994 0 0 1 .726 2.236l-1 3.09 2.628-1.91a1.994 1.994 0 0 1 2.352 0l2.629 1.909-1.009-3.089a1.994 1.994 0 0 1 .726-2.236l2.629-1.91h-3.249a2 2 0 0 1 -1.906-1.382l-1-3.09v-.012l-1 3.1a2 2 0 0 1 -1.906 1.384z" fill="#231f20"/><path d="m49.2 18.243a2 2 0 0 1 -1.175-.389 1.97 1.97 0 0 1 -.726-2.236l1-3.09-2.629-1.91a2 2 0 0 1 1.175-3.618h3.249l1-3.09a2 2 0 0 1 3.8 0l1 3.09h3.249a2 2 0 0 1 1.176 3.618l-2.619 1.91 1 3.09a2 2 0 0 1 -3.077 2.236l-2.623-1.91-2.629 1.91a2 2 0 0 1 -1.171.389zm-2.355-9.243 2.629 1.91a1.994 1.994 0 0 1 .726 2.236l-1 3.09 2.628-1.91a1.994 1.994 0 0 1 2.352 0l2.629 1.909-1.009-3.089a1.994 1.994 0 0 1 .726-2.236l2.629-1.91h-3.249a2 2 0 0 1 -1.906-1.382l-1-3.09v-.012l-1 3.1a2 2 0 0 1 -1.906 1.384z" fill="#231f20"/><path d="m8.2 18.243a2 2 0 0 1 -1.175-.389 1.97 1.97 0 0 1 -.726-2.236l1-3.09-2.629-1.91a2 2 0 0 1 1.175-3.618h3.249l1-3.09a2 2 0 0 1 3.8 0l1 3.091h3.249a2 2 0 0 1 1.176 3.618l-2.619 1.909 1 3.09a2 2 0 0 1 -3.077 2.236l-2.623-1.91-2.629 1.91a2 2 0 0 1 -1.171.389zm-2.355-9.243 2.629 1.91a1.994 1.994 0 0 1 .726 2.236l-1 3.09 2.628-1.91a1.994 1.994 0 0 1 2.352 0l2.629 1.909-1-3.09a1.994 1.994 0 0 1 .726-2.236l2.62-1.909h-3.249a2 2 0 0 1 -1.906-1.382l-1-3.09-1 3.09a2 2 0 0 1 -1.906 1.382z" fill="#231f20"/><path d="m55 42h-1.35l-2.15-4.84a7.007 7.007 0 0 0 -6.4-4.16h-5.1v-11a1 1 0 0 0 -1-1h-36a1 1 0 0 0 -1 1v32a1 1 0 0 0 1 1h1v1a3.009 3.009 0 0 0 3 3h5.81a5.989 5.989 0 0 0 10.38 0h21.62a5.989 5.989 0 0 0 10.38 0h3.81a3.009 3.009 0 0 0 3-3v-7a7.008 7.008 0 0 0 -7-7zm-11-7h1.1a5 5 0 0 1 4.57 2.97l1.79 4.03h-6.46a1 1 0 0 1 -1-1zm-40-12h34v24h-34zm8.09 34h-5.09a1 1 0 0 1 -1-1v-1h6.09a5.6 5.6 0 0 0 0 2zm5.91 3a4 4 0 1 1 4-4 4 4 0 0 1 -4 4zm0-10a6 6 0 0 0 -5.19 3h-8.81v-4h34v4h-14.81a6 6 0 0 0 -5.19-3zm26.09 7h-20.18a5.6 5.6 0 0 0 0-2h20.18a5.6 5.6 0 0 0 0 2zm5.91 3a4 4 0 1 1 4-4 4 4 0 0 1 -4 4zm10-4a1 1 0 0 1 -1 1h-3.09a5.6 5.6 0 0 0 0-2h4.09zm0-3h-4.81a5.989 5.989 0 0 0 -10.38 0h-4.81v-18h2v6a3.009 3.009 0 0 0 3 3h10a5 5 0 0 1 5 5z" fill="#231f20"/><path d="m30 27h-18a1 1 0 0 0 -1 1v14a1 1 0 0 0 1 1h18a1 1 0 0 0 1-1v-14a1 1 0 0 0 -1-1zm-11 2h4v4.13l-1.45-.96a.975.975 0 0 0 -1.1 0l-1.45.96zm10 12h-16v-12h4v6a.984.984 0 0 0 .53.88.963.963 0 0 0 1.02-.05l2.45-1.63 2.45 1.63a1 1 0 0 0 1.55-.83v-6h4z" fill="#231f20"/><path d="m45 47h2a1 1 0 0 0 0-2h-2a1 1 0 0 0 0 2z" fill="#231f20"/></g></svg>