<svg height="512" viewBox="0 0 64 64" width="512" xmlns="http://www.w3.org/2000/svg"><g id="phone_&#xB7;_telephone_&#xB7;_communication_&#xB7;_mobile_&#xB7;_online" data-name="phone &#xB7; telephone &#xB7; communication &#xB7; mobile &#xB7; online"><path d="m22.586 25.414a2 2 0 0 0 0-2.828l-9.624-9.624a2.008 2.008 0 0 0 -2.934.1 29.313 29.313 0 0 0 -2.148 2.818l12.12 12.12z" fill="#ffcd00"/><path d="m22.586 22.586-9.624-9.624a2.006 2.006 0 0 0 -2.916.084l9.54 9.54a2 2 0 0 1 0 2.828l-1.086 1.086 1.5 1.5 2.586-2.586a2 2 0 0 0 0-2.828z" fill="#dfb300"/><path d="m21.12 58.88a29.031 29.031 0 0 0 27-2.76l-12.12-12.12-2.672 2.672a7.935 7.935 0 0 1 -8.937 1.645 18.078 18.078 0 0 1 -8.707-8.706 7.941 7.941 0 0 1 1.646-8.942l2.67-2.669-12.12-12.12a29.014 29.014 0 0 0 13.24 43z" fill="#006df0"/><path d="m14.419 30.581-.088.088a7.949 7.949 0 0 0 -1.631 8.971 18.071 18.071 0 0 0 8.693 8.677 7.745 7.745 0 0 0 4.809.561 7.6 7.6 0 0 1 -1.809-.561 18.071 18.071 0 0 1 -8.693-8.677 7.949 7.949 0 0 1 1.633-8.971l2.667-2.669-12.12-12.12q-.6.906-1.14 1.86l7.679 7.679a3.65 3.65 0 0 1 0 5.162z" fill="#005fd2"/><path d="m36 44-1.5 1.5 6.8 6.8a4 4 0 0 1 -1.314 6.539 29.057 29.057 0 0 1 -9.64 2.107c.554.034 1.099.054 1.654.054a28.912 28.912 0 0 0 16.12-4.88z" fill="#005fd2"/><path d="m50.937 53.972a2.008 2.008 0 0 0 .1-2.934l-9.624-9.624a2 2 0 0 0 -2.828 0l-2.585 2.586 12.12 12.12a29.313 29.313 0 0 0 2.817-2.148z" fill="#ffcd00"/><path d="m51.038 51.038-9.624-9.624a2 2 0 0 0 -2.828 0l-.086.086 9.538 9.538a2.008 2.008 0 0 1 -.1 2.934c-.352.3-.718.593-1.085.88l1.267 1.268a29.313 29.313 0 0 0 2.817-2.148 2.008 2.008 0 0 0 .101-2.934z" fill="#dfb300"/><g fill="#231f20"><path d="m51.74 50.33-9.62-9.62a3 3 0 0 0 -4.24 0l-5.26 5.25a6.938 6.938 0 0 1 -7.81 1.45 17.1 17.1 0 0 1 -8.22-8.22 6.938 6.938 0 0 1 1.45-7.81l5.25-5.26a3 3 0 0 0 0-4.24l-9.62-9.62a3.052 3.052 0 0 0 -2.24-.88 2.989 2.989 0 0 0 -2.16 1.03 31.464 31.464 0 0 0 -2.22 2.91 30.017 30.017 0 0 0 41.63 41.63 31.464 31.464 0 0 0 2.91-2.22 2.989 2.989 0 0 0 1.03-2.16 3.029 3.029 0 0 0 -.88-2.24zm-40.95-36.61a.976.976 0 0 1 .71-.35h.04a1.04 1.04 0 0 1 .72.3l9.62 9.62a1.008 1.008 0 0 1 0 1.42l-1.88 1.88-10.81-10.82c.5-.7 1.03-1.4 1.6-2.05zm21.21 46.28a27.713 27.713 0 0 1 -10.51-2.05 28.042 28.042 0 0 1 -15.44-15.45 27.927 27.927 0 0 1 2.02-25.02l10.51 10.52-1.96 1.96a8.941 8.941 0 0 0 -1.84 10.07 19.046 19.046 0 0 0 9.19 9.19 8.941 8.941 0 0 0 10.07-1.84l1.96-1.97 10.52 10.52a27.866 27.866 0 0 1 -14.52 4.07zm18.28-6.79c-.65.57-1.35 1.1-2.05 1.6l-10.82-10.81 1.88-1.88a1.008 1.008 0 0 1 1.42 0l9.62 9.62a1.032 1.032 0 0 1 .3.76.976.976 0 0 1 -.35.71z"/><path d="m55.289 50.29a1 1 0 0 1 -.8-1.6 27.738 27.738 0 0 0 5.511-16.69 28.032 28.032 0 0 0 -28-28 27.738 27.738 0 0 0 -16.693 5.512 1 1 0 0 1 -1.194-1.6 29.72 29.72 0 0 1 17.887-5.912 30.034 30.034 0 0 1 30 30 29.72 29.72 0 0 1 -5.908 17.887 1 1 0 0 1 -.803.403z"/><path d="m52.419 47.42a1 1 0 0 1 -.814-1.58 23.746 23.746 0 0 0 4.395-13.84 24.027 24.027 0 0 0 -24-24 23.746 23.746 0 0 0 -13.84 4.4 1 1 0 1 1 -1.16-1.635 25.74 25.74 0 0 1 15-4.765 26.03 26.03 0 0 1 26 26 25.74 25.74 0 0 1 -4.765 15 1 1 0 0 1 -.816.42z"/><path d="m49.539 44.54a1 1 0 0 1 -.831-1.554 19.759 19.759 0 0 0 3.292-10.986 20.023 20.023 0 0 0 -20-20 19.759 19.759 0 0 0 -10.986 3.292 1 1 0 1 1 -1.108-1.665 21.744 21.744 0 0 1 12.094-3.627 22.025 22.025 0 0 1 22 22 21.744 21.744 0 0 1 -3.627 12.094 1 1 0 0 1 -.834.446z"/><path d="m34 36h-6a1 1 0 0 1 -1-1v-1.171a2.978 2.978 0 0 1 .879-2.122l4.828-4.828a1 1 0 0 0 .293-.708v-.171a2 2 0 0 0 -4 0v1a1 1 0 0 1 -2 0v-1a4 4 0 0 1 8 0v.171a2.978 2.978 0 0 1 -.879 2.122l-4.828 4.828a1 1 0 0 0 -.293.708v.171h5a1 1 0 0 1 0 2z"/><path d="m43 36a1 1 0 0 1 -1-1v-1h-5a1 1 0 0 1 -.857-1.515l6-10a1 1 0 0 1 1.857.515v9h1a1 1 0 0 1 0 2h-1v1a1 1 0 0 1 -1 1zm-4.234-4h3.234v-5.39z"/></g></g></svg>