<svg id="Layer_3" enable-background="new 0 0 64 64" height="512" viewBox="0 0 64 64" width="512" xmlns="http://www.w3.org/2000/svg"><g><path d="m4 8h40c1.105 0 2 .895 2 2v50c0 1.105-.895 2-2 2h-40c-1.105 0-2-.895-2-2v-50c0-1.105.895-2 2-2z" fill="#f7d881"/><g><path d="m6 12h36v46h-36z" fill="#ebf7fe"/></g><path d="m59 34c0-.784-.456-1.456-1.113-1.784.48-.556.641-1.352.338-2.075-.296-.707-.952-1.146-1.666-1.211.21-.685.053-1.459-.489-2.001-.555-.555-1.352-.707-2.049-.474-.054-.733-.503-1.409-1.228-1.707-.709-.291-1.483-.137-2.034.321-.335-.633-.993-1.069-1.759-1.069-.784 0-1.456.456-1.784 1.113-.556-.48-1.352-.641-2.075-.338-.707.296-1.146.952-1.211 1.666-.685-.21-1.459-.053-2.001.489-.555.555-.707 1.352-.474 2.049-.732.054-1.409.503-1.707 1.228-.291.709-.137 1.483.321 2.034-.633.335-1.069.992-1.069 1.759 0 .784.456 1.456 1.113 1.784-.48.556-.641 1.352-.338 2.075.296.707.952 1.146 1.666 1.211-.21.685-.053 1.459.489 2.001.555.555 1.352.707 2.049.474.054.732.503 1.409 1.228 1.707.709.291 1.483.137 2.034-.321.335.633.993 1.069 1.759 1.069.784 0 1.456-.456 1.784-1.113.556.48 1.352.641 2.075.338.707-.296 1.146-.952 1.211-1.666.685.21 1.459.053 2.001-.489.555-.555.707-1.352.474-2.049.732-.054 1.409-.503 1.707-1.228.291-.709.137-1.483-.321-2.034.633-.335 1.069-.993 1.069-1.759z" fill="#c16b3f"/><path d="m48.209 29.278c0-1.583-.452-3.057-1.223-4.315-.535-.348-1.213-.453-1.846-.189-.707.296-1.146.952-1.211 1.666-.685-.21-1.459-.053-2.001.489-.555.555-.707 1.352-.474 2.049-.732.054-1.409.503-1.707 1.228-.291.709-.137 1.483.321 2.034-.632.336-1.068.993-1.068 1.76 0 .784.456 1.456 1.113 1.784-.411.477-.568 1.128-.42 1.76.08.002.157.012.238.012 4.572 0 8.278-3.706 8.278-8.278z" fill="#e39854"/><circle cx="30" cy="25" fill="#c66b60" r="8"/><path d="m28.859 17.091c-3.876.555-6.859 3.879-6.859 7.909 0 2.739 1.378 5.154 3.477 6.596 3.129-1.655 5.263-4.94 5.263-8.726 0-2.161-.703-4.154-1.881-5.779z" fill="#e47c6e"/><g fill="#e39854"><path d="m49 44-3 12-3-6-7 2 5.929-10.929c.555.555 1.352.707 2.049.474.054.732.503 1.409 1.228 1.707.709.291 1.483.137 2.034-.321.336.633.994 1.069 1.76 1.069z"/><path d="m49 44 3 12 3-6 7 2-5.929-10.929c-.555.555-1.352.707-2.049.474-.054.732-.437 1.382-1.163 1.68-.709.291-1.525.12-2.075-.338-.336.633-1.018 1.113-1.784 1.113z"/><path d="m36 8c-2.842 0-5.498-1.356-7.215-3.621-1.096-1.445-2.831-2.379-4.785-2.379s-3.689.934-4.785 2.379c-1.717 2.265-4.373 3.621-7.215 3.621v4c0 1.105.895 2 2 2h20c1.105 0 2-.895 2-2z"/></g><g><path d="m16 34.999h-6c-.553 0-1-.447-1-1v-6c0-.553.447-1 1-1h6c.553 0 1 .447 1 1v6c0 .553-.448 1-1 1zm-5-2h4v-4h-4z" fill="#758190"/></g><g><path d="m16 43.999h-6c-.553 0-1-.447-1-1v-6c0-.553.447-1 1-1h6c.553 0 1 .447 1 1v6c0 .553-.448 1-1 1zm-5-2h4v-4h-4z" fill="#758190"/></g><g><path d="m16 52.999h-6c-.553 0-1-.447-1-1v-6c0-.553.447-1 1-1h6c.553 0 1 .447 1 1v6c0 .553-.448 1-1 1zm-5-2h4v-4h-4z" fill="#758190"/></g><g><path d="m13 33c-.066 0-.132-.007-.198-.02-.302-.061-.559-.258-.696-.533l-1-2 1.789-.894.427.854 6.028-5.166 1.301 1.518-7 6c-.183.156-.415.241-.651.241z" fill="#96cc7f"/></g><g><path d="m13 42c-.066 0-.132-.007-.198-.02-.302-.061-.559-.258-.696-.533l-1-2 1.789-.894.427.854 6.028-5.166 1.301 1.518-7 6c-.183.156-.415.241-.651.241z" fill="#96cc7f"/></g><g><path d="m13 51c-.066 0-.132-.007-.198-.02-.302-.061-.559-.258-.696-.533l-1-2 1.789-.894.427.854 6.028-5.166 1.301 1.518-7 6c-.183.156-.415.241-.651.241z" fill="#96cc7f"/></g><circle cx="49" cy="34" fill="#f2c351" r="6"/><g><path d="m53 34h-2c0-1.103-.897-2-2-2v-2c2.206 0 4 1.794 4 4z" fill="#f7d881"/></g><path d="m27 22c0 1.657 1.343 3 3 3s3-1.343 3-3v-1h-6z" fill="#d5cec2"/><path d="m27 28c0-1.657 1.343-3 3-3s3 1.343 3 3v1h-6z" fill="#f2c351"/><g><path d="m9 17h10v2h-10z" fill="#c1c8d1"/></g><g><path d="m9 21h6v2h-6z" fill="#c1c8d1"/></g><g><path d="m17 21h2v2h-2z" fill="#c1c8d1"/></g><g><path d="m24 36h11.479v1.913h-11.479z" fill="#c1c8d1"/></g><g><path d="m27.826 39.826h7.653v1.913h-7.653z" fill="#c1c8d1"/></g><g><path d="m24 39.826h1.913v1.913h-1.913z" fill="#c1c8d1"/></g><g><path d="m24 43.653h7.654v1.913h-7.654z" fill="#c1c8d1"/></g><g><path d="m34 44h2v2h-2z" fill="#c1c8d1"/></g><g><path d="m28 7.999h-2c0-1.103-.897-2-2-2v-1.999c2.206 0 4 1.793 4 3.999z" fill="#c16b3f"/></g><g><path d="m54.499 44.881h2v2.236h-2z" fill="#c16b3f" transform="matrix(.894 -.447 .447 .894 -14.712 29.676)"/></g><path d="m27 22c0 1.657 1.343 3 3 3 .177 0 .348-.023.516-.052.144-.67.223-1.365.223-2.078 0-.64-.066-1.264-.182-1.87h-3.557z" fill="#e7e4dd"/><path d="m30.49 25.049c-.16-.026-.322-.049-.49-.049-1.657 0-3 1.343-3 3v1h1.597c.905-1.14 1.562-2.482 1.893-3.951z" fill="#f7d881"/><path d="m43 34c0 .962.232 1.868.635 2.674 2.71-1.36 4.575-4.157 4.575-7.396 0-.41-.04-.811-.097-1.205-2.893.43-5.113 2.916-5.113 5.927z" fill="#f7d881"/><g><path d="m16 27h-6c-.553 0-1 .447-1 1v6c0 .553.447 1 1 1h6c.553 0 1-.447 1-1v-4.111l3.651-3.129-1.301-1.518-2.552 2.187c-.182-.255-.464-.429-.798-.429zm-5 2h3.963l-1.641 1.407-.427-.854-1.789.894 1 2c.138.275.395.472.696.533.064.013.129.019.193.02h-1.995zm4 3.999h-1.997c.235-.001.466-.085.648-.241l1.349-1.156z"/><path d="m16.798 36.427c-.182-.253-.464-.427-.798-.427h-6c-.553 0-1 .447-1 1v6c0 .553.447 1 1 1h6c.553 0 1-.447 1-1v-4.111l3.651-3.129-1.301-1.518zm-5.798 1.573h3.963l-1.641 1.407-.427-.854-1.789.894 1 2c.138.275.395.472.696.533.064.013.129.019.193.02h-1.995zm4 3.999h-1.997c.235-.001.466-.085.648-.241l1.349-1.156z"/><path d="m19.349 43.24-2.552 2.187c-.181-.253-.463-.427-.797-.427h-6c-.553 0-1 .447-1 1v6c0 .553.447 1 1 1h6c.553 0 1-.447 1-1v-4.111l3.651-3.129zm-8.349 3.76h3.963l-1.641 1.407-.427-.854-1.789.894 1 2c.138.275.395.472.696.533.064.013.129.019.193.02h-1.995zm4 3.999h-1.997c.235-.001.466-.085.648-.241l1.349-1.156z"/><path d="m42 34c0 3.859 3.14 7 7 7 3.859 0 7-3.14 7-7s-3.14-7-7-7-7 3.14-7 7zm7-5c2.757 0 5 2.243 5 5s-2.243 5-5 5-5-2.243-5-5c0-2.758 2.243-5 5-5z"/><path d="m51 33.999h2c0-2.205-1.794-3.999-4-3.999v2c1.103 0 2 .897 2 1.999z"/><path d="m62.879 51.523-5.631-10.38c.244-.425.389-.897.403-1.386.683-.309 1.231-.866 1.526-1.584.288-.701.293-1.47.039-2.161.497-.542.784-1.255.784-2.012 0-.777-.296-1.501-.811-2.045.264-.701.258-1.484-.042-2.2-.292-.699-.833-1.246-1.501-1.554-.032-.736-.333-1.443-.869-1.979-.549-.549-1.271-.852-2.02-.873-.309-.683-.866-1.231-1.584-1.526-.7-.288-1.469-.292-2.161-.039-1.085-.994-2.931-.985-4.014-.008v-13.776c0-1.654-1.346-3-3-3h-7.998-.001c-2.488 0-4.887-1.206-6.418-3.225-1.337-1.764-3.371-2.775-5.581-2.775-2.211 0-4.245 1.011-5.582 2.775-1.531 2.019-3.93 3.225-6.418 3.225h-8c-1.654 0-3 1.346-3 3v50c0 1.654 1.346 3 3 3h39.999c1.654 0 3-1.346 3-3v-3.875l2.001-8.003 2.03 8.121c.102.406.445.706.861.751.036.004.073.006.109.006.375 0 .724-.212.894-.553l2.629-5.257 6.202 1.772c.389.112.803-.023 1.055-.336.252-.314.291-.749.099-1.103zm-14.769-25.964c.339-.678 1.409-.695 1.766-.022.141.266.395.455.69.513.298.062.602-.02.833-.213.289-.239.679-.301 1.015-.164.348.143.582.47.61.855.023.308.187.587.443.759.257.171.581.216.871.116.368-.121.759-.033 1.024.233.258.258.35.641.24 1-.088.288-.042.601.126.851.167.25.439.411.739.438.374.034.694.265.834.601.146.347.079.745-.173 1.036-.202.234-.284.548-.223.851s.258.56.534.698c.346.172.561.512.561.889 0 .365-.206.701-.538.876-.266.141-.455.395-.513.69s.02.602.213.833c.24.289.303.677.164 1.015-.143.348-.47.582-.855.61-.308.023-.587.187-.759.443-.171.257-.213.579-.116.871.123.366.033.758-.233 1.024-.257.258-.64.351-1 .24-.288-.086-.6-.042-.851.126-.25.167-.411.439-.438.739-.034.374-.265.694-.601.834-.347.147-.745.079-1.036-.173-.234-.201-.544-.281-.851-.223-.303.061-.56.258-.698.534-.338.68-1.408.695-1.766.021-.141-.266-.395-.454-.69-.513-.064-.013-.129-.019-.193-.019-.232 0-.458.081-.64.231-.289.239-.677.305-1.015.165-.348-.143-.583-.471-.611-.855-.023-.308-.187-.587-.443-.759-.256-.17-.576-.212-.871-.116-.365.124-.758.033-1.024-.233-.258-.258-.35-.641-.24-1 .088-.288.042-.601-.126-.851-.167-.25-.439-.411-.739-.438-.374-.034-.694-.265-.834-.602-.146-.347-.079-.744.173-1.036.202-.234.284-.548.223-.851s-.258-.56-.534-.698c-.344-.168-.558-.509-.558-.885 0-.365.206-.701.537-.876.266-.141.455-.395.513-.69s-.02-.602-.213-.833c-.24-.289-.303-.677-.165-1.015.143-.349.471-.583.855-.611.308-.022.588-.186.76-.443.171-.257.213-.579.115-.872-.122-.365-.033-.757.233-1.023.257-.258.642-.349 1-.24.29.089.6.042.851-.126.25-.167.411-.439.438-.739.034-.374.265-.694.602-.834.348-.145.744-.079 1.036.173.234.202.551.286.851.223.302-.062.56-.259.697-.535zm-4.216 23.993c-.215-.431-.704-.644-1.169-.515l-4.711 1.346 4.298-7.922c.299.109.61.18.93.189.309.682.866 1.231 1.584 1.526.7.288 1.469.294 2.161.038.236.217.509.385.8.515l-2.101 8.404zm1.105-39.552v13.776c-.081.026-.165.042-.245.076-.699.292-1.246.833-1.555 1.501-.068.003-.133.02-.2.027v-13.381c0-.552-.448-1-1-1h-5.001v-2h7c.553.001 1.001.449 1.001 1.001zm-31.999-1.052c2.743-.284 5.311-1.721 7.012-3.965.955-1.261 2.409-1.983 3.988-1.983s3.032.723 3.987 1.983c1.702 2.244 4.27 3.681 7.013 3.965v3.051c0 .552-.448 1-1 1h-20c-.552 0-1-.448-1-1zm1 6.051h20c1.302 0 2.402-.839 2.816-2h4.184v13.49c-.402.508-.634 1.117-.652 1.752-.682.309-1.231.866-1.526 1.585-.288.701-.293 1.47-.039 2.161-.496.542-.783 1.255-.783 2.013 0 .776.296 1.5.811 2.045-.265.701-.259 1.483.041 2.2.292.699.833 1.246 1.501 1.555.021.474.164.931.399 1.343l-5.631 10.38c-.192.354-.153.789.099 1.103.251.313.669.449 1.055.336l4.725-1.351v5.388h-34v-43.999h4.184c.415 1.161 1.514 1.999 2.816 1.999zm29.999 46h-39.999c-.552 0-1-.448-1-1v-49.999c0-.552.448-1 1-1h7v2h-5c-.553 0-1 .447-1 1v46c0 .553.447 1 1 1h36c.553 0 1-.447 1-1v-5.764l2 3.999v3.766c-.001.55-.449.998-1.001.998zm11.275-11.961c-.461-.128-.954.084-1.169.515l-1.791 3.582-2.101-8.402c.304-.136.587-.314.831-.544.702.265 1.485.259 2.2-.042.699-.292 1.246-.833 1.554-1.501.305-.013.602-.084.887-.187l4.3 7.925z"/><path d="m30 33.999c4.962 0 8.999-4.037 8.999-9s-4.037-9-8.999-9c-4.963 0-9 4.037-9 9s4.037 9 9 9zm0-15.999c3.859 0 6.999 3.14 6.999 7 0 3.859-3.14 7-6.999 7-3.86 0-7-3.14-7-7s3.14-7 7-7z"/><path d="m27 29.999h6c.553 0 1-.447 1-1v-1c0-1.2-.542-2.266-1.382-3 .84-.734 1.382-1.799 1.382-3v-1c0-.553-.447-1-1-1h-6c-.553 0-1 .447-1 1v1c0 1.2.542 2.266 1.382 3-.84.734-1.382 1.799-1.382 3v1c0 .553.447 1 1 1zm1-2c0-1.103.897-2 2-2s2 .897 2 2zm3.999-5.999c0 1.103-.897 2-2 2s-2-.897-2-2z"/><path d="m9 17h10v2h-10z"/><path d="m9 21h6v2h-6z"/><path d="m17 21h2v2h-2z"/><path d="m24 36h12v2h-12z"/><path d="m28 40h8v2h-8z"/><path d="m24 40h2v2h-2z"/><path d="m24 44h8v2h-8z"/><path d="m34 44h2v2h-2z"/><path d="m26 7.999h2c0-2.206-1.794-4-4-4v2c1.103.001 2 .897 2 2z"/><path d="m54.499 44.881h2v2.236h-2z" transform="matrix(.894 -.447 .447 .894 -14.712 29.676)"/></g></g></svg>