<svg id="Layer_3" enable-background="new 0 0 64 64" height="512" viewBox="0 0 64 64" width="512" xmlns="http://www.w3.org/2000/svg"><g><path d="m24.092 10-1.046 1.046 4.025 4.025c1.875 1.875 2.929 4.419 2.929 7.071v24.554l11.138 11.138c1.554 1.554 4.074 1.554 5.628 0l14.069-14.069c1.554-1.554 1.554-4.074 0-5.628l-25.225-25.223c-1.865-1.866-4.396-2.914-7.034-2.914z" fill="#c16b3f"/><path d="m40.652 57.348 19.697-19.697.486.486c1.554 1.554 1.554 4.074 0 5.628l-14.069 14.069c-1.554 1.554-4.074 1.554-5.628 0z" fill="#d5cec2"/><g fill="#e7e4dd"><path d="m50.716 39.301-4.221-4.221c-.389-.389-1.022-.39-1.415 0l-3.517 3.517c-.39.391-.39 1.024 0 1.415l3.514 3.513-2.103 2.103-2.807-2.806 1.403-1.403-1.414-1.415-2.11 2.11c-.188.188-.293.442-.293.707 0 .266.105.52.292.708l4.221 4.221c.195.195.451.293.708.293.256 0 .512-.098.707-.293l3.518-3.517c.188-.188.292-.442.293-.707 0-.266-.105-.52-.293-.708l-3.514-3.513 2.103-2.103 2.807 2.806-1.403 1.403 1.415 1.415 2.11-2.11c.389-.391.389-1.024-.001-1.415z"/><path d="m40.868 37.902 4.221-4.221-1.415-1.415-2.81 2.81-2.806-2.806 2.81-2.81-1.415-1.415-4.221 4.221c-.09.09-.162.196-.212.313l-2.11 4.924c-.161.375-.077.812.212 1.101l1.407 1.407c.191.191.447.293.708.293.133 0 .267-.027.394-.081l4.924-2.11c.116-.05.222-.121.313-.211zm-5.404.217-.449-.449 1.684-3.928 2.694 2.694z"/><path d="m38.347 27.347c0-.266-.105-.52-.293-.708l-4.221-4.221-1.415 1.415 3.514 3.513-6.64 6.64 1.415 1.415 7.347-7.347c.187-.188.292-.442.293-.707z"/></g><path d="m30 22.142v35.858c0 2.209-1.791 4-4 4h-20c-2.209 0-4-1.791-4-4v-35.858c0-2.652 1.054-5.196 2.929-7.071l7.657-7.657c.905-.905 2.133-1.414 3.414-1.414 1.281 0 2.509.509 3.414 1.414l7.657 7.657c1.875 1.875 2.929 4.419 2.929 7.071z" fill="#f2c351"/><path d="m16 6c-1.281 0-2.509.509-3.414 1.414l-7.657 7.657c-1.875 1.875-2.929 4.419-2.929 7.071v21.339c11.752-5.267 19.944-17.058 19.944-30.77 0-.978-.051-1.943-.133-2.9l-2.397-2.397c-.905-.905-2.133-1.414-3.414-1.414z" fill="#f7d881"/><path d="m30 58c0 2.209-1.791 4-4 4h-20c-2.209 0-4-1.791-4-4z" fill="#e7e4dd"/><path d="m19.999 14.093-.184.184c-.463.463-1.091.723-1.746.723-.655 0-1.283-.26-1.746-.723l-.599-.599c-.464-.464-.724-1.092-.724-1.747 0-.655.26-1.283.723-1.746l.183-.183c-2.165.049-3.906 1.82-3.906 3.998 0 2.209 1.791 4 4 4 2.178 0 3.95-1.741 3.999-3.907z" fill="#e7e4dd"/><g fill="#af4a47"><g><path d="m21 46h-5c-.553 0-1 .447-1 1v5h-3v-4h2v-2h-3c-.553 0-1 .447-1 1v6c0 .266.105.52.292.708.187.187.442.292.708.292h5c.552 0 1-.447 1-1v-5h3v4h-2v2h3c.552 0 1-.447 1-1v-6c0-.553-.448-1-1-1z"/><path d="m10.628 42.928 5 2c.119.048.245.072.372.072h6v-2h-4v-4h4v-2h-6c-.127 0-.253.024-.372.071l-5 2c-.379.152-.628.52-.628.929v2c0 .409.249.776.628.928zm1.372-2.251 4-1.6v3.846l-4-1.6z"/><path d="m22 35v-6h-2v5h-10v2h11c.552 0 1-.448 1-1z"/><path d="m11 28h10c.553 0 1-.448 1-1v-6h-2v5h-3v-5h-2v5h-3v-5h-2v6c0 .552.447 1 1 1z"/></g><path d="m21 46h-5c-.553 0-1 .447-1 1v5h-3v-4h2v-2h-3c-.553 0-1 .447-1 1v6c0 .266.105.52.292.708.187.187.442.292.708.292h5c.552 0 1-.447 1-1v-5h3v4h-2v2h3c.552 0 1-.447 1-1v-6c0-.553-.448-1-1-1z"/><path d="m10.628 42.928 5 2c.119.048.245.072.372.072h6v-2h-4v-4h4v-2h-6c-.127 0-.253.024-.372.071l-5 2c-.379.152-.628.52-.628.929v2c0 .409.249.776.628.928zm1.372-2.251 4-1.6v3.846l-4-1.6z"/><path d="m11 28h10c.553 0 1-.448 1-1v-6h-2v5h-3v-5h-2v5h-3v-5h-2v6c0 .552.447 1 1 1z"/></g><path d="m15 11.931c0-.655.26-1.283.723-1.746l7.461-7.461c.464-.464 1.092-.724 1.747-.724.655 0 1.283.26 1.746.723l.599.599c.464.464.724 1.092.724 1.747 0 .655-.26 1.283-.723 1.746l-7.461 7.461c-.464.464-1.092.724-1.747.724-.655 0-1.283-.26-1.746-.723l-.599-.599c-.464-.464-.724-1.092-.724-1.747z" fill="#db9b7c"/><path d="m21.021 4.887-5.298 5.298c-.463.463-.723 1.091-.723 1.746s.26 1.283.723 1.746l.599.599c.464.464 1.092.724 1.747.724s1.283-.26 1.746-.723l2.114-2.114c-.039-2.502-.351-4.936-.908-7.276z" fill="#efbe9a"/><g fill="#e4725f"><path d="m20 21v3.003c.349-.981.656-1.982.914-3.003z"/><path d="m19.219 26h-2.219v-5h-2v5h-3v-5h-2v6c0 .552.447 1 1 1h7.274c.335-.656.653-1.32.945-2z"/></g><path d="m14.368 34h-4.368v2h2.594c.615-.645 1.21-1.309 1.774-2z" fill="#e4725f"/></g></svg>